<svg width="24" height="24" viewBox="0 0 24 24" fill="none" xmlns="http://www.w3.org/2000/svg">
<path fill-rule="evenodd" clip-rule="evenodd" d="M19.5018 12C19.5018 12.34 19.4718 12.66 19.4318 12.98L21.5418 14.63C21.7318 14.78 21.7818 15.05 21.6618 15.27L19.6618 18.73C19.5718 18.89 19.4018 18.98 19.2318 18.98C19.1718 18.98 19.1118 18.97 19.0518 18.95L16.5618 17.95C16.0418 18.34 15.4818 18.68 14.8718 18.93L14.4918 21.58C14.4618 21.82 14.2518 22 14.0018 22H10.0018C9.75179 22 9.54179 21.82 9.51179 21.58L9.13179 18.93C8.52179 18.68 7.96179 18.35 7.44179 17.95L4.95179 18.95C4.90179 18.97 4.84179 18.98 4.78179 18.98C4.60179 18.98 4.43179 18.89 4.34179 18.73L2.34179 15.27C2.22179 15.05 2.27179 14.78 2.46179 14.63L4.57179 12.98C4.53179 12.66 4.50179 12.33 4.50179 12C4.50179 11.67 4.53179 11.34 4.57179 11.02L2.46179 9.37C2.27179 9.22 2.21179 8.95 2.34179 8.73L4.34179 5.27C4.43179 5.11 4.60179 5.02 4.77179 5.02C4.83179 5.02 4.89179 5.03 4.95179 5.05L7.44179 6.05C7.96179 5.66 8.52179 5.32 9.13179 5.07L9.51179 2.42C9.54179 2.18 9.75179 2 10.0018 2H14.0018C14.2518 2 14.4618 2.18 14.4918 2.42L14.8718 5.07C15.4818 5.32 16.0418 5.65 16.5618 6.05L19.0518 5.05C19.1018 5.03 19.1618 5.02 19.2218 5.02C19.4018 5.02 19.5718 5.11 19.6618 5.27L21.6618 8.73C21.7818 8.95 21.7318 9.22 21.5418 9.37L19.4318 11.02C19.4718 11.34 19.5018 11.66 19.5018 12ZM17.5018 12C17.5018 11.79 17.4918 11.58 17.4518 11.27L17.3118 10.14L18.2018 9.44L19.2718 8.59L18.5718 7.38L17.3018 7.89L16.2418 8.32L15.3318 7.62C14.9318 7.32 14.5318 7.09 14.1018 6.91L13.0418 6.48L12.8818 5.35L12.6918 4H11.3018L11.1018 5.35L10.9418 6.48L9.88179 6.91C9.47179 7.08 9.06179 7.32 8.63179 7.64L7.73179 8.32L6.69179 7.9L5.42179 7.39L4.72179 8.6L5.80179 9.44L6.69179 10.14L6.55179 11.27C6.52179 11.57 6.50179 11.8 6.50179 12C6.50179 12.2 6.52179 12.43 6.55179 12.74L6.69179 13.87L5.80179 14.57L4.72179 15.41L5.42179 16.62L6.69179 16.11L7.75179 15.68L8.66179 16.38C9.06179 16.68 9.46179 16.91 9.89179 17.09L10.9518 17.52L11.1118 18.65L11.3018 20H12.7018L12.9018 18.65L13.0618 17.52L14.1218 17.09C14.5318 16.92 14.9418 16.68 15.3718 16.36L16.2718 15.68L17.3118 16.1L18.5818 16.61L19.2818 15.4L18.2018 14.56L17.3118 13.86L17.4518 12.73C17.4818 12.43 17.5018 12.21 17.5018 12ZM12.0018 8C9.79179 8 8.00179 9.79 8.00179 12C8.00179 14.21 9.79179 16 12.0018 16C14.2118 16 16.0018 14.21 16.0018 12C16.0018 9.79 14.2118 8 12.0018 8ZM10.0018 12C10.0018 13.1 10.9018 14 12.0018 14C13.1018 14 14.0018 13.1 14.0018 12C14.0018 10.9 13.1018 10 12.0018 10C10.9018 10 10.0018 10.9 10.0018 12Z" fill="currentColor"/>
</svg>
