<svg width="24" height="24" viewBox="0 0 24 24" fill="none" xmlns="http://www.w3.org/2000/svg">
<path fill-rule="evenodd" clip-rule="evenodd" d="M2 12C2 17.51 6.49 22 12 22C13.38 22 14.5 20.88 14.5 19.5C14.5 18.89 14.27 18.3 13.86 17.83C13.78 17.73 13.73 17.62 13.73 17.5C13.73 17.22 13.95 17 14.23 17H16C19.31 17 22 14.31 22 11C22 6.04 17.51 2 12 2C6.49 2 2 6.49 2 12ZM4 12C4 7.59 7.59 4 12 4C16.41 4 20 7.14 20 11C20 13.21 18.21 15 16 15H14.23C12.85 15 11.73 16.12 11.73 17.5C11.73 18.1 11.95 18.69 12.36 19.15C12.42 19.22 12.5 19.34 12.5 19.5C12.5 19.78 12.28 20 12 20C7.59 20 4 16.41 4 12ZM6.5 10C5.67157 10 5 10.6716 5 11.5C5 12.3284 5.67157 13 6.5 13C7.32843 13 8 12.3284 8 11.5C8 10.6716 7.32843 10 6.5 10ZM8 7.5C8 6.67157 8.67157 6 9.5 6C10.3284 6 11 6.67157 11 7.5C11 8.32843 10.3284 9 9.5 9C8.67157 9 8 8.32843 8 7.5ZM14.5 6C13.6716 6 13 6.67157 13 7.5C13 8.32843 13.6716 9 14.5 9C15.3284 9 16 8.32843 16 7.5C16 6.67157 15.3284 6 14.5 6ZM16 11.5C16 10.6716 16.6716 10 17.5 10C18.3284 10 19 10.6716 19 11.5C19 12.3284 18.3284 13 17.5 13C16.6716 13 16 12.3284 16 11.5Z" fill="currentColor"/>
</svg>
