<svg width="24" height="24" viewBox="0 0 24 24" fill="none" xmlns="http://www.w3.org/2000/svg">
<path d="M20.3802 8.57L19.1502 10.42C19.7433 11.6031 20.0337 12.9148 19.9954 14.2377C19.957 15.5606 19.591 16.8533 18.9302 18H5.07017C4.21134 16.5101 3.85547 14.7831 4.05531 13.0751C4.25516 11.367 5.00008 9.76882 6.17965 8.51743C7.35922 7.26603 8.91064 6.42804 10.6039 6.1277C12.2972 5.82735 14.0422 6.08063 15.5802 6.85L17.4302 5.62C15.5467 4.41222 13.3125 3.871 11.0851 4.08294C8.85763 4.29487 6.76562 5.2477 5.14367 6.78901C3.52171 8.33033 2.46353 10.3711 2.13839 12.5848C1.81325 14.7986 2.23992 17.0574 3.35017 19C3.52468 19.3023 3.77526 19.5536 4.077 19.7291C4.37875 19.9045 4.72115 19.9979 5.07017 20H18.9202C19.2726 20.0014 19.6191 19.9096 19.9247 19.734C20.2302 19.5584 20.484 19.3052 20.6602 19C21.5815 17.4039 22.0439 15.5843 21.9963 13.742C21.9486 11.8996 21.3928 10.1063 20.3902 8.56L20.3802 8.57ZM10.5902 15.41C10.7759 15.596 10.9965 15.7435 11.2393 15.8441C11.4821 15.9448 11.7423 15.9966 12.0052 15.9966C12.268 15.9966 12.5283 15.9448 12.7711 15.8441C13.0138 15.7435 13.2344 15.596 13.4202 15.41L19.0802 6.92L10.5902 12.58C10.4042 12.7657 10.2567 12.9863 10.1561 13.2291C10.0554 13.4719 10.0036 13.7322 10.0036 13.995C10.0036 14.2578 10.0554 14.5181 10.1561 14.7609C10.2567 15.0037 10.4042 15.2243 10.5902 15.41Z" fill="currentColor"/>
</svg>
