<svg width="24" height="24" viewBox="0 0 24 24" fill="none" xmlns="http://www.w3.org/2000/svg">
<path fill-rule="evenodd" clip-rule="evenodd" d="M12 2C6.48 2 2 6.48 2 12C2 17.52 6.48 22 12 22C17.52 22 22 17.52 22 12C22 6.48 17.52 2 12 2ZM12.51 9.99C12.51 8.34 11.16 6.99 9.51 6.99C7.86 6.99 6.51 8.34 6.51 9.99C6.51 11.64 7.86 12.99 9.51 12.99C11.16 12.99 12.51 11.64 12.51 9.99ZM9.51 10.99C8.96 10.99 8.51 10.54 8.51 9.99C8.51 9.44 8.96 8.99 9.51 8.99C10.06 8.99 10.51 9.44 10.51 9.99C10.51 10.54 10.06 10.99 9.51 10.99ZM18.01 10.99C18.01 12.1 17.12 12.99 16.01 12.99C14.9 12.99 14.01 12.1 14.01 10.99C14 9.88 14.9 8.99 16.01 8.99C17.12 8.99 18.01 9.88 18.01 10.99ZM9.51 16C8.12 16 6.53 16.57 5.85 17.11C7.22 18.76 9.24 19.84 11.51 19.97V17.19C11.51 15.3 14.49 14.49 16.01 14.49C16.89 14.49 18.25 14.77 19.25 15.36C19.73 14.33 20 13.19 20 11.99C20 7.58 16.41 3.99 12 3.99C7.59 3.99 4 7.58 4 11.99C4 13.22 4.28 14.38 4.78 15.42C6.12 14.44 8.21 13.99 9.51 13.99C9.95 13.99 10.48 14.05 11.04 14.15C10.41 14.72 9.98 15.37 9.74 16.01C9.69867 16.01 9.65733 16.0073 9.61738 16.0048C9.58 16.0023 9.54383 16 9.51 16Z" fill="currentColor"/>
</svg>
